<?xml version="1.0" encoding="UTF-8"?>
<svg version="1.1" xmlns="http://www.w3.org/2000/svg" width="2000" height="1500">
<path d="M0 0 C660 0 1320 0 2000 0 C2000 495 2000 990 2000 1500 C1340 1500 680 1500 0 1500 C0 1005 0 510 0 0 Z " fill="#FEFEFF" transform="translate(0,0)"/>
<path d="M0 0 C2.51309074 0.00483799 5.02616198 0.00584252 7.53925705 0.00624466 C77.81343967 0.04661883 77.81343967 0.04661883 98.34202194 4.3172493 C100.4540667 4.52578425 102.56924207 4.70362551 104.68577194 4.86021805 C121.74239012 6.20035802 138.69321485 8.00058532 155.65452194 10.2547493 C156.58135788 10.37595139 157.50819382 10.49715347 158.46311569 10.62202835 C171.0399536 12.27510763 183.47191756 14.37911511 195.91384506 16.84593582 C200.0692171 17.65250097 204.2370753 18.38862476 208.40452194 19.1297493 C232.966906 23.58134119 257.363063 28.24511157 281.52170944 34.57994461 C285.20482539 35.54280906 288.89701937 36.46357038 292.59202194 37.3797493 C293.80631882 37.68525711 295.02061569 37.99076492 296.27170944 38.30553055 C299.41817503 39.0933418 302.57069859 39.8537294 305.72483444 40.61021805 C317.52789715 43.46658661 329.1580915 46.66205687 340.73411179 50.33775711 C345.99699347 52.0045785 351.26616979 53.58208037 356.59620285 55.01730728 C367.52217782 57.96758832 378.17273472 61.55254515 388.84202194 65.3172493 C389.76834427 65.64228439 390.6946666 65.96731949 391.6490593 66.30220413 C417.85838661 75.50381302 443.83497495 85.30399743 469.34202194 96.3172493 C470.36682663 96.75826981 471.39163132 97.19929031 472.44749069 97.65367508 C486.48610291 103.72182674 500.33002519 110.15042876 514.09202194 116.8172493 C515.16261353 117.33512009 515.16261353 117.33512009 516.25483322 117.86345291 C518.30119451 118.85507391 520.34547947 119.85082806 522.38889694 120.8484993 C523.56291061 121.42148758 524.73692429 121.99447586 525.94651413 122.58482742 C529.48527004 124.3903359 532.90871043 126.32004419 536.34202194 128.3172493 C536.12288132 128.84004471 535.90374069 129.36284012 535.67795944 129.90147781 C532.83758403 136.68417306 530.01278362 143.4733066 527.19401169 150.2650032 C526.6146128 151.66064101 526.03488877 153.05614387 525.45487595 154.45152664 C495.62203292 226.22704279 469.59201095 299.48058851 445.34202194 373.3172493 C441.24984485 373.3172493 440.84413889 373.31013379 437.89280319 371.00084305 C437.22289352 370.49158279 436.55298386 369.98232254 435.8627739 369.45763016 C435.13405075 368.89567947 434.40532761 368.33372879 433.65452194 367.7547493 C388.10590611 333.83216231 333.8386795 314.61136688 280.34202194 297.3172493 C279.2737114 296.97178055 278.20540085 296.6263118 277.10471725 296.2703743 C262.35940088 291.54412511 247.43256309 287.71325904 232.38938522 284.05894852 C228.53570104 283.12099846 224.6886401 282.15875578 220.84202194 281.1922493 C219.61225632 280.88674149 218.38249069 280.58123367 217.11545944 280.26646805 C214.44932467 279.59579439 211.78949571 278.91152052 209.13108444 278.21178055 C166.87441859 267.19106765 123.1751634 259.88801482 79.77952194 255.3172493 C78.83767044 255.21724625 77.89581894 255.11724319 76.92542648 255.01420975 C53.22089039 252.53868066 29.5898981 252.11511036 5.77674866 252.12857056 C3.44282261 252.12976165 1.10890101 252.1292135 -1.22502518 252.12855911 C-23.4054444 252.12989438 -45.49891155 252.50278449 -67.63283157 254.05577469 C-70.50211373 254.25177229 -73.37051775 254.40281679 -76.24367142 254.52989578 C-87.19759428 255.01767802 -97.98405602 256.00501004 -108.84547806 257.5047493 C-109.6406987 257.61329239 -110.43591934 257.72183548 -111.25523758 257.83366776 C-138.97561249 261.66186949 -170.87217346 267.53819013 -189.51344681 290.6141243 C-191.03572128 292.7941717 -192.37902181 294.98726959 -193.65797806 297.3172493 C-193.9970015 297.9050618 -194.33602493 298.4928743 -194.68532181 299.0984993 C-198.41415916 306.93421282 -198.00115214 318.63084553 -195.22047806 326.6922493 C-186.44461947 345.07829106 -165.76338408 354.34770494 -147.72047806 360.9422493 C-112.58905012 373.35582784 -75.57811186 377.68145632 -38.59547806 380.4422493 C-37.59435989 380.51790115 -36.59324173 380.59355301 -35.56178665 380.67149734 C-11.36823985 382.34347055 12.8590007 382.4627917 37.09723854 382.62760162 C77.5787267 382.9077739 117.933589 383.75929821 158.34202194 386.3172493 C159.28027817 386.37654617 160.21853439 386.43584305 161.18522263 386.4969368 C172.59202953 387.23015527 183.96882373 388.17886503 195.34202194 389.3172493 C196.2336705 389.40597305 197.12531906 389.49469681 198.04398727 389.58610916 C221.22734741 391.90301285 244.37964353 394.31459884 267.34202194 398.3172493 C269.00442917 398.60317947 269.00442917 398.60317947 270.70042038 398.89488602 C277.77482551 400.11661393 284.83994608 401.38361358 291.90012741 402.68492508 C295.24504837 403.29943389 298.59221764 403.90035012 301.93967819 404.50084305 C369.59052461 416.83666433 441.18722516 440.46658658 491.83127975 488.87388992 C492.85454778 489.85151768 493.88271221 490.82404154 494.91526413 491.79185867 C507.86454478 503.96182091 518.57849204 517.85860028 527.34202194 533.3172493 C527.69184128 533.9134407 528.04166061 534.50963211 528.40208054 535.12388992 C546.39977901 565.93176161 552.93438715 600.33070871 552.67820358 635.59947586 C552.65464034 639.04991137 552.65766897 642.49956602 552.66428757 645.9500618 C552.63997503 666.2767884 551.59377302 686.52842651 548.02952194 706.5672493 C547.80933395 707.83044998 547.58914597 709.09365067 547.36228561 710.39513016 C538.26040337 761.47023033 517.68474915 809.46958566 482.47483444 847.96178055 C480.64706478 849.98036133 478.89856001 852.03953282 477.15452194 854.1297493 C467.81835116 864.79965877 456.681925 873.87479262 445.34202194 882.3172493 C444.70458054 882.79516922 444.06713913 883.27308914 443.41038132 883.76549149 C432.70504435 891.73408627 421.50418925 898.54050108 409.81126022 904.95933914 C407.60270494 906.17389169 405.40697661 907.40847713 403.21311569 908.64928055 C383.22193781 919.77892712 361.62179715 927.89891891 340.04856491 935.36949539 C337.62637115 936.21767834 335.21872283 937.09496478 332.81467819 937.99303055 C322.06298879 941.98298425 311.10476625 944.88691297 299.98215866 947.65758133 C297.69397161 948.2293107 295.40982509 948.81372743 293.12717819 949.40709305 C274.71011024 954.1396523 256.05836043 957.97655626 237.34202194 961.3172493 C236.06730026 961.54557449 234.79257858 961.77389969 233.47922897 962.00914383 C203.42420705 967.35732593 173.32921126 971.14604257 142.85447311 973.08360672 C140.31096154 973.28370751 140.31096154 973.28370751 137.70408249 973.79478836 C132.98657484 974.52788446 128.26948616 974.78973995 123.50608444 975.07115555 C121.84771057 975.16925522 121.84771057 975.16925522 120.1558342 975.2693367 C61.87864084 978.59957623 2.93630488 979.29171423 -55.33815384 975.58189774 C-59.46285557 975.32143865 -63.58756676 975.13022546 -67.71657181 974.9500618 C-107.78234526 973.07852903 -147.78948451 967.76373682 -187.40834427 961.66362381 C-189.58271971 961.32883677 -191.75751054 960.99687456 -193.93239212 960.66539383 C-224.41774531 956.001004 -254.58343055 950.10840098 -284.65797806 943.3172493 C-285.87936478 943.04348465 -287.1007515 942.76972 -288.35914993 942.48765945 C-299.3908243 940.01137514 -310.38485724 937.54168739 -321.22047806 934.3016243 C-325.46514365 933.08610642 -329.74362407 932.04916448 -334.03297806 931.0047493 C-349.65485047 927.16394624 -365.08838873 922.63348478 -380.31203079 917.43541336 C-384.30791351 916.07667862 -388.30806616 914.82032202 -392.37428665 913.68248367 C-439.63263064 900.43094902 -486.05405297 880.1559244 -529.65407181 857.80553055 C-532.2872366 856.50093265 -534.91216822 855.35911733 -537.65797806 854.3172493 C-536.41143133 850.98220923 -535.00622889 848.08773551 -533.04079056 845.1219368 C-532.26396927 843.94051102 -532.26396927 843.94051102 -531.47145462 842.73521805 C-530.91425735 841.89603836 -530.35706009 841.05685867 -529.78297806 840.1922493 C-528.59196175 838.37774352 -527.40187741 836.56262571 -526.21266556 834.7469368 C-525.61292923 833.83266922 -525.0131929 832.91840164 -524.39528275 831.97642899 C-508.52083809 807.6784454 -493.58026004 782.780731 -479.65797806 757.3172493 C-479.0683931 756.24636063 -478.47880814 755.17547195 -477.87135696 754.07213211 C-450.73981983 704.70365998 -429.3603437 653.01771833 -409.65797806 600.3172493 C-405.5621943 600.3172493 -404.31772906 600.7659542 -400.83375931 602.62584305 C-399.8972554 603.12068192 -398.9607515 603.61552078 -397.99586868 604.12535477 C-396.99748978 604.66305496 -395.99911087 605.20075516 -394.97047806 605.7547493 C-393.92956009 606.30534012 -392.88864212 606.85593094 -391.81618118 607.42320633 C-387.34358076 609.79247202 -382.88480946 612.18485137 -378.45094681 614.62584305 C-327.51959272 642.50330214 -270.62547887 661.47954946 -214.65797806 676.3172493 C-213.52714798 676.61808426 -212.3963179 676.91891922 -211.23122025 677.22887039 C-159.80414342 690.7833481 -107.50500627 700.45532257 -54.65797806 706.3172493 C-53.91388687 706.40150162 -53.16979568 706.48575394 -52.40315628 706.57255936 C-25.58509919 709.57802505 1.16493673 710.67852699 28.12653732 710.57540131 C30.38594598 710.56708768 32.64534755 710.56170725 34.90476608 710.5568428 C131.80095826 711.7322173 131.80095826 711.7322173 216.65452194 671.1141243 C224.01426176 663.2773643 224.87589148 655.33584861 224.67795944 644.97740555 C224.06992252 632.53777413 216.45827456 622.92022906 207.65452194 614.6922493 C196.75564015 605.70803593 184.35874901 600.41087533 171.34202194 595.3172493 C170.1573735 594.8428743 168.97272507 594.3684993 167.75217819 593.8797493 C148.2117873 586.44464218 126.75060809 582.80082544 106.09202194 580.2547493 C104.71123272 580.08247599 103.33045488 579.91011141 101.94968796 579.73765945 C99.25885238 579.40323018 96.56751284 579.07413688 93.87571335 578.74742508 C91.06469955 578.40522484 88.25600224 578.05019836 85.44749069 577.68834305 C55.21499832 573.979028 24.49760872 574.05273833 -5.90941238 573.91051102 C-38.66175888 573.75190219 -71.37138048 573.20874273 -104.09547806 571.8172493 C-104.88529572 571.78413273 -105.67511337 571.75101616 -106.4888649 571.71689606 C-111.66938474 571.49948937 -116.84937117 571.27208679 -122.02907181 571.0359993 C-123.30477539 570.97871155 -124.58047897 570.9214238 -125.89484024 570.86240005 C-131.87023043 570.57429865 -137.73164556 570.12085415 -143.65797806 569.3172493 C-145.90771865 569.14107553 -148.15921037 568.98593487 -150.41188431 568.85240555 C-151.66598099 568.77586746 -152.92007767 568.69932938 -154.21217728 568.62047195 C-154.86538956 568.58141739 -155.51860184 568.54236282 -156.19160843 568.50212479 C-185.94088985 566.70773505 -215.70262491 564.06086464 -245.09938431 559.0281868 C-249.07890678 558.36674286 -253.07358666 557.90860847 -257.07985306 557.43834305 C-265.91877604 556.3726412 -274.61681088 554.73952285 -283.34547806 553.0047493 C-284.13001358 552.85040421 -284.9145491 552.69605911 -285.72285843 552.5370369 C-310.31440426 547.69516842 -334.43467608 541.61783598 -358.22047806 533.6922493 C-358.99457016 533.43468857 -359.76866226 533.17712784 -360.5662117 532.91176224 C-374.66091687 528.19547718 -388.27499278 522.81661925 -401.65797806 516.3172493 C-402.58094681 515.87026688 -403.50391556 515.42328445 -404.45485306 514.96275711 C-451.24573998 492.01341321 -488.75433579 455.78364547 -506.12672806 405.97740555 C-512.37992925 387.34424539 -515.79937255 367.32792874 -515.82594681 347.67271805 C-515.82927521 346.78224274 -515.83260361 345.89176743 -515.83603287 344.97430801 C-515.84106152 343.09782292 -515.84344246 341.22132901 -515.84328079 339.34483719 C-515.8454433 336.54967323 -515.86357655 333.75492061 -515.88258743 330.95982742 C-516.0851894 266.92595642 -496.45655419 204.66368579 -456.65797806 154.3172493 C-455.84586868 153.27955399 -455.03375931 152.24185867 -454.19704056 151.17271805 C-448.27251467 143.89321384 -441.76794996 137.225999 -435.15797806 130.5672493 C-434.29180862 129.69173416 -433.42563919 128.81621902 -432.5332222 127.91417313 C-426.55108641 121.96131462 -420.28823292 116.5352472 -413.65797806 111.3172493 C-412.62205521 110.50030594 -412.62205521 110.50030594 -411.56520462 109.66685867 C-362.58018732 71.52507744 -302.41467431 45.99688186 -242.65797806 30.3172493 C-241.25394901 29.93976553 -239.85026013 29.56101234 -238.44704056 29.18053055 C-236.05600737 28.53561435 -233.6628452 27.89852557 -231.26735306 27.2703743 C-228.68841971 26.58935727 -226.11788091 25.89202914 -223.54860306 25.1766243 C-201.31312732 19.05192658 -178.71623644 14.93219765 -155.88649368 11.7806282 C-152.85964965 11.3461946 -149.84570599 10.86473446 -146.82985306 10.36021805 C-131.21494138 7.79282053 -115.52894992 6.203749 -99.78297806 4.6922493 C-98.18658493 4.53576416 -98.18658493 4.53576416 -96.55794144 4.37611771 C-64.40884096 1.24902476 -32.29121114 -0.07016386 0 0 Z " fill="#263AFF" transform="translate(990.6579780578613,259.6827507019043)"/>
</svg>
